<?xml version="1.0" standalone="no"?>
<!DOCTYPE svg PUBLIC "-//W3C//DTD SVG 20010904//EN"
 "http://www.w3.org/TR/2001/REC-SVG-20010904/DTD/svg10.dtd">
<svg version="1.0" xmlns="http://www.w3.org/2000/svg"
 width="1051.000000pt" height="1025.000000pt" viewBox="0 0 1051.000000 1025.000000"
 preserveAspectRatio="xMidYMid meet">

<g transform="translate(0.000000,1025.000000) scale(0.100000,-0.100000)"
fill="#000000" stroke="none">
<path d="M1660 10239 c-724 -82 -1334 -573 -1564 -1261 -40 -122 -70 -261 -85
-400 -15 -136 -15 -6770 0 -6906 61 -562 355 -1048 824 -1363 204 -137 450
-234 730 -287 84 -16 342 -17 3620 -20 2512 -2 3562 0 3640 8 371 37 715 177
996 406 77 63 219 206 282 284 201 251 338 567 389 900 19 126 19 6925 0 7050
-52 334 -185 644 -385 895 -26 33 -91 104 -145 159 -300 304 -686 488 -1124
535 -119 13 -7063 13 -7178 0z m2332 -2641 c16 -14 1618 -4483 1618 -4515 0
-43 -3 -43 -501 -43 l-478 0 -24 22 c-22 21 -102 244 -352 989 l-25 74 -820
-3 -819 -2 -90 -278 c-49 -152 -126 -391 -171 -529 -44 -139 -88 -259 -96
-268 -14 -13 -72 -15 -466 -13 -407 3 -452 5 -461 20 -8 12 144 459 683 2005
381 1093 713 2047 736 2119 36 110 45 153 55 270 7 76 17 145 22 152 7 9 138
12 591 12 451 0 586 -3 598 -12z m3883 -1077 c291 -68 507 -181 681 -355 225
-225 378 -559 423 -926 21 -163 7 -611 -21 -683 -6 -15 -20 -29 -32 -32 -79
-16 -270 -19 -1143 -16 -863 3 -983 1 -983 -12 0 -42 54 -220 89 -291 97 -198
242 -315 491 -394 247 -78 512 -83 900 -16 152 26 249 50 338 84 29 11 57 20
62 20 6 0 10 -136 10 -378 0 -440 13 -394 -128 -447 -273 -103 -622 -152
-1011 -142 -377 10 -620 61 -866 185 -413 206 -705 597 -814 1087 -100 450
-60 952 106 1345 201 476 598 841 1035 952 152 38 260 47 523 44 211 -3 264
-7 340 -25z"/>
<path d="M3387 6810 c-3 -8 -18 -69 -33 -135 -32 -145 -72 -283 -214 -740 -59
-192 -124 -406 -144 -476 -20 -69 -61 -199 -91 -289 -30 -90 -55 -168 -55
-172 0 -4 250 -8 556 -8 l555 0 -6 23 c-4 12 -45 139 -91 282 -176 552 -309
980 -380 1230 -81 286 -89 308 -97 285z"/>
<path d="M7285 5781 c-220 -64 -366 -210 -443 -443 -17 -51 -34 -115 -37 -141
l-7 -48 608 3 c561 3 612 4 642 21 27 15 32 23 32 55 0 75 -22 158 -65 248
-73 152 -214 266 -380 309 -83 21 -271 19 -350 -4z"/>
</g>
</svg>
