<?xml version="1.0" standalone="no"?>
<!DOCTYPE svg PUBLIC "-//W3C//DTD SVG 20010904//EN"
 "http://www.w3.org/TR/2001/REC-SVG-20010904/DTD/svg10.dtd">
<svg version="1.0" xmlns="http://www.w3.org/2000/svg"
 width="1051.000000pt" height="1025.000000pt" viewBox="0 0 1051.000000 1025.000000"
 preserveAspectRatio="xMidYMid meet">

<g transform="translate(0.000000,1025.000000) scale(0.100000,-0.100000)"
fill="#000000" stroke="none">
<path d="M1660 10239 c-724 -82 -1334 -573 -1564 -1261 -40 -122 -70 -261 -85
-400 -15 -136 -15 -6770 0 -6906 61 -562 355 -1048 824 -1363 204 -137 450
-234 730 -287 84 -16 342 -17 3620 -20 2512 -2 3562 0 3640 8 371 37 715 177
996 406 77 63 219 206 282 284 201 251 338 567 389 900 19 126 19 6925 0 7050
-52 334 -185 644 -385 895 -26 33 -91 104 -145 159 -300 304 -686 488 -1124
535 -119 13 -7063 13 -7178 0z m2659 -2613 c465 -62 812 -218 1074 -483 204
-207 333 -469 387 -788 19 -114 22 -155 17 -330 -8 -334 -67 -560 -204 -788
-207 -342 -556 -582 -1002 -686 -231 -54 -331 -63 -753 -68 l-398 -5 0 -717
c0 -544 -3 -720 -12 -729 -19 -19 -901 -17 -917 2 -8 10 -10 617 -9 2297 l3
2284 145 7 c568 29 1461 31 1669 4z m4218 -1066 c19 -37 14 -907 -5 -919 -7
-4 -82 -11 -165 -14 -347 -15 -693 -114 -875 -251 -34 -27 -67 -56 -72 -66 -6
-12 -10 -427 -10 -1147 0 -865 -3 -1132 -12 -1141 -18 -18 -927 -17 -950 1
-15 11 -17 142 -21 1522 -3 1006 -8 1583 -17 1728 -9 173 -9 221 1 233 10 13
66 14 414 12 366 -3 403 -5 428 -21 44 -29 69 -117 88 -322 7 -66 13 -121 14
-122 0 -1 41 37 91 86 243 239 541 393 844 436 52 7 126 13 165 12 63 -2 71
-4 82 -27z"/>
<path d="M3503 6782 l-53 -3 0 -739 0 -738 118 -7 c153 -10 432 0 551 20 385
64 620 226 702 485 30 94 38 342 14 443 -46 196 -165 347 -338 432 -107 52
-238 88 -381 105 -87 10 -447 12 -613 2z"/>
</g>
</svg>
